<svg xmlns="http://www.w3.org/2000/svg" version="1.0" preserveAspectRatio="xMidYMid meet" viewBox="316.04 213.34 166.53 173.53">

<g transform="translate(0.000000,600.000000) scale(0.100000,-0.100000)" fill="#000000" stroke="none">
<path d="M3350 3861 c-79 -25 -157 -100 -178 -169 -13 -44 -16 -142 -4 -142 4 0 19 15 34 34 15 19 53 47 85 63 l58 28 350 0 c390 0 410 -3 551 -72 395 -192 506 -690 230 -1025 -126 -153 -325 -249 -522 -252 -71 -1 -85 2 -121 26 -44 29 -73 79 -73 127 l0 31 88 0 c195 1 323 43 427 141 106 100 155 210 155 349 0 234 -164 425 -410 476 -59 12 -131 14 -360 12 -276 -3 -287 -4 -338 -27 -30 -14 -69 -43 -92 -68 -71 -81 -71 -83 -68 -600 3 -448 3 -459 25 -499 48 -91 150 -148 283 -160 82 -8 88 1 29 41 -53 37 -97 94 -120 155 -18 46 -19 83 -19 483 l0 434 25 23 c22 20 36 24 98 24 l72 1 5 -450 5 -450 28 -57 c36 -74 119 -150 195 -179 77 -29 177 -35 289 -15 356 62 629 303 725 641 29 102 32 315 6 410 -72 264 -233 462 -473 580 -169 83 -200 88 -605 91 -195 2 -366 -1 -380 -5z m682 -587 c63 -21 145 -96 174 -159 27 -56 32 -142 13 -205 -18 -59 -78 -130 -139 -164 -53 -30 -61 -31 -187 -34 l-133 -4 0 298 0 297 113 -6 c61 -3 133 -14 159 -23z"/>
</g>
</svg>